<?xml version="1.0" standalone="no"?>
<!DOCTYPE svg PUBLIC "-//W3C//DTD SVG 20010904//EN"
 "http://www.w3.org/TR/2001/REC-SVG-20010904/DTD/svg10.dtd">
<svg version="1.0" xmlns="http://www.w3.org/2000/svg"
 width="168.000000pt" height="168.000000pt" viewBox="0 0 168.000000 168.000000"
 preserveAspectRatio="xMidYMid meet">
<metadata>
Created by potrace 1.11, written by Peter Selinger 2001-2013
</metadata>
<g transform="translate(0.000000,168.000000) scale(0.100000,-0.100000)"
fill="#000000" stroke="none">
<path d="M548 1532 c-21 -2 -38 -7 -38 -11 0 -4 -30 -18 -67 -31 -38 -13 -70
-27 -73 -30 -3 -4 -21 -15 -40 -25 -45 -23 -168 -126 -169 -142 -1 -6 -10 -18
-21 -26 -11 -8 -32 -36 -46 -63 -14 -27 -32 -53 -40 -57 -8 -5 -12 -12 -9 -17
3 -5 0 -20 -7 -32 -6 -13 -13 -32 -15 -42 -2 -11 -8 -25 -13 -31 -5 -6 -8 -83
-7 -176 l3 -164 38 -77 c38 -79 104 -175 147 -215 13 -12 38 -34 54 -50 83
-77 362 -189 384 -154 5 7 93 12 246 13 152 2 240 7 240 13 0 6 -104 10 -290
11 -241 1 -296 3 -325 17 -32 14 11 15 573 16 532 1 607 3 607 16 0 17 60 15
-825 15 -290 0 -476 4 -485 10 -10 6 138 10 438 10 294 0 452 3 452 10 0 13
39 12 -490 13 -416 2 -457 4 -480 19 -24 17 -17 18 182 18 127 0 209 4 213 10
8 13 16 12 -233 15 -172 1 -216 4 -228 16 -13 13 11 15 201 16 119 0 219 4
223 7 16 17 -31 21 -240 20 -210 -1 -248 3 -248 27 0 5 112 9 249 9 226 0 291
6 245 24 -9 3 -130 6 -269 6 -159 0 -256 4 -260 10 -4 7 90 10 274 10 176 0
282 4 286 10 7 12 18 12 -315 13 -254 0 -279 3 -280 30 0 4 358 7 795 7 646 0
795 2 795 13 0 11 -149 13 -797 12 -592 0 -800 3 -812 12 -9 6 -14 14 -11 16
3 3 44 7 93 9 49 2 87 7 87 13 0 9 -34 12 -169 14 -13 1 -21 4 -17 8 4 4 42 8
83 8 51 0 78 4 80 12 3 9 -21 13 -88 15 -79 3 -93 6 -95 21 -2 16 12 17 167
17 132 0 169 3 169 13 0 10 -37 13 -170 12 -159 -2 -170 0 -170 17 0 17 11 18
150 18 83 0 150 4 150 9 0 14 -36 17 -172 16 -116 0 -128 1 -128 17 0 16 12
18 125 18 114 0 151 8 109 24 -9 3 -65 6 -125 6 -60 0 -109 4 -109 8 0 5 43 9
95 9 91 0 116 5 102 19 -3 3 -47 6 -96 7 -81 1 -91 3 -91 19 0 16 10 18 100
18 59 0 100 4 100 10 0 14 -36 19 -118 17 -57 -2 -71 1 -67 11 3 8 5 16 5 18
0 2 46 4 103 4 56 0 109 5 117 10 19 12 16 13 -108 15 -51 1 -94 4 -97 6 -2 3
-1 10 4 17 5 9 189 12 804 12 698 0 797 2 797 15 0 12 -21 15 -117 16 -77 0
-111 3 -97 9 32 13 43 34 13 25 -38 -12 -40 -11 -56 13 -15 22 -15 22 31 22
51 0 55 7 28 40 -15 18 -25 22 -46 16 -49 -12 -58 -98 -12 -116 15 -6 4 -9
-39 -9 -33 1 -53 3 -45 6 42 15 53 70 20 103 -24 24 -63 26 -84 4 -24 -24 -20
-80 6 -98 21 -15 5 -16 -187 -15 -153 0 -203 3 -182 11 15 5 27 14 27 19 0 5
-11 4 -25 -1 -18 -7 -28 -5 -40 6 -24 25 -18 34 25 34 22 0 40 5 40 11 0 24
-22 49 -44 49 -53 0 -78 -84 -34 -114 20 -15 -12 -16 -372 -16 -217 0 -389 4
-382 8 7 5 97 8 200 7 192 -1 222 1 222 16 0 5 -90 9 -200 9 -110 0 -200 4
-200 8 0 27 30 32 208 32 142 0 183 3 180 13 -4 9 -47 12 -171 12 -92 0 -167
3 -167 6 0 21 40 29 171 31 171 4 196 22 31 25 -142 1 -144 2 -138 11 3 5 75
9 161 9 109 0 153 -3 146 -10 -13 -13 -15 -30 -3 -23 5 3 20 7 35 10 22 4 27
1 28 -17 3 -56 2 -84 -4 -109 -7 -25 -5 -28 18 -26 18 2 24 7 20 18 -6 20 -9
129 -3 135 2 3 19 0 37 -5 29 -8 31 -7 26 11 -4 10 -2 19 3 19 15 0 19 -28 17
-107 -2 -56 1 -73 11 -73 11 0 14 20 14 88 l0 88 198 1 198 1 -2 -89 c-1 -66
2 -89 11 -89 8 0 13 14 12 40 -1 44 13 66 37 57 11 -5 16 -20 16 -52 0 -25 5
-45 10 -45 11 0 13 10 11 65 -2 45 -15 58 -53 51 -21 -4 -25 -2 -23 12 2 9 4
24 4 33 1 15 26 16 235 16 228 -1 235 -1 240 -21 7 -26 24 -11 28 23 l3 24
-694 1 c-671 0 -693 0 -671 18 21 17 60 18 696 18 595 0 729 4 657 22 -10 2
-296 4 -636 3 -340 0 -621 3 -623 7 -7 11 -16 11 368 12 191 1 350 5 354 9 4
4 4 10 1 14 -4 3 -142 6 -307 6 -165 1 -300 2 -300 4 0 17 82 26 249 28 138 1
196 5 199 13 3 9 -39 12 -155 13 -87 0 -174 2 -193 3 -19 1 -52 1 -72 -2z m99
-198 c-3 -3 -12 -4 -19 -1 -8 3 -5 6 6 6 11 1 17 -2 13 -5z m40 0 c-3 -3 -12
-4 -19 -1 -8 3 -5 6 6 6 11 1 17 -2 13 -5z m220 -87 c-5 -15 -37 -17 -37 -3 0
7 3 15 6 19 9 9 35 -4 31 -16z m441 -15 c12 -34 -1 -62 -28 -62 -25 0 -42 33
-34 65 9 36 49 34 62 -3z m116 19 c8 -13 -3 -19 -24 -14 -11 3 -17 9 -14 14 7
11 31 12 38 0z"/>
<path d="M1023 1243 c0 -62 4 -83 14 -83 8 0 13 13 13 35 0 32 3 35 28 35 35
0 52 16 52 51 0 30 -35 50 -81 46 -27 -2 -27 -2 -26 -84z m72 50 c16 -16 16
-18 -5 -35 -32 -26 -40 -23 -40 17 0 39 17 46 45 18z"/>
<path d="M760 1270 c0 -5 9 -10 20 -10 11 0 19 -3 19 -7 -6 -37 3 -93 14 -93
10 0 13 13 11 50 -1 27 -5 54 -9 60 -8 13 -55 13 -55 0z"/>
<path d="M1516 1270 c-2 -3 -3 -27 -2 -54 1 -66 24 -74 28 -9 3 40 6 48 23 48
17 0 20 -8 23 -47 3 -49 16 -63 25 -30 2 11 1 37 -2 58 -6 38 -7 39 -49 39
-24 1 -45 -2 -46 -5z"/>
<path d="M1647 1273 c-4 -3 -7 -30 -7 -60 0 -38 4 -53 13 -53 10 0 14 16 13
60 0 57 -4 68 -19 53z"/>
<path d="M555 1081 c-18 -18 73 -21 566 -21 444 0 559 3 559 13 0 10 -115 12
-560 13 -309 0 -563 -2 -565 -5z"/>
<path d="M354 1065 c-45 -19 -69 -52 -69 -95 0 -47 19 -69 107 -126 73 -47 90
-77 68 -119 -28 -53 -97 -51 -154 4 l-31 30 3 -47 c3 -40 7 -47 25 -48 12 0
39 -4 61 -7 88 -16 161 32 161 108 0 52 -16 73 -106 131 -37 23 -70 47 -74 53
-16 28 -13 51 12 71 39 31 77 26 118 -16 l35 -35 -1 48 c-2 44 -4 48 -28 49
-14 0 -42 3 -62 6 -20 3 -49 0 -65 -7z"/>
<path d="M967 995 c3 -5 13 -18 20 -27 13 -15 9 -31 -41 -143 -30 -69 -65
-135 -78 -145 -13 -11 -18 -20 -13 -20 80 -10 107 -4 80 16 -16 12 -16 16 -2
51 l15 38 65 3 64 3 17 -35 c20 -43 20 -53 -1 -65 -19 -11 -8 -13 62 -13 55 0
62 3 38 14 -18 9 -83 121 -83 143 0 2 -20 47 -44 98 -42 90 -46 95 -74 94 -17
-1 -28 -6 -25 -12z m92 -190 c1 -5 -21 -10 -47 -10 l-48 0 19 50 c10 27 21 54
25 60 5 9 50 -77 51 -100z"/>
<path d="M1196 1003 c-2 -2 12 -19 30 -37 l34 -34 0 -117 c0 -108 -2 -119 -22
-136 -11 -11 -19 -19 -17 -20 2 0 24 -1 47 -2 48 -3 62 6 35 21 -14 8 -17 27
-18 117 l-1 107 41 -44 c22 -25 73 -82 114 -127 40 -45 76 -79 79 -76 4 3 7
76 7 161 1 140 3 156 21 169 10 8 17 15 14 16 -13 4 -100 5 -100 2 0 -3 9 -12
20 -21 19 -16 21 -26 18 -131 l-3 -113 -114 131 c-63 72 -117 131 -120 132
-25 4 -61 5 -65 2z"/>
<path d="M1588 988 c-18 -18 -24 -38 -10 -38 4 1 18 7 32 15 14 8 35 14 48 15
12 0 22 6 22 13 0 21 -70 17 -92 -5z"/>
<path d="M540 990 c12 -7 15 -38 16 -157 1 -81 -3 -153 -8 -160 -11 -14 2 -23
28 -18 10 2 27 4 37 4 16 1 16 3 4 15 -9 9 -13 35 -13 77 l1 64 78 1 77 1 0
-73 c0 -43 -4 -74 -10 -74 -5 0 -10 -3 -10 -8 0 -4 20 -8 45 -8 25 -1 45 3 45
7 0 5 -4 9 -10 9 -15 0 -13 303 2 318 9 9 0 12 -42 12 -42 -1 -51 -3 -37 -11
13 -8 17 -24 17 -74 l0 -65 -79 0 -80 0 1 63 c1 44 6 65 17 74 13 10 6 12 -39
13 -38 0 -50 -3 -40 -10z"/>
<path d="M732 562 c-13 -10 -29 -35 -36 -57 -32 -91 42 -167 139 -145 46 10
44 9 46 56 2 57 1 64 -16 64 -11 0 -15 -12 -15 -49 0 -55 -12 -64 -66 -49 -40
10 -52 25 -58 73 -10 81 61 134 120 90 26 -20 30 -19 30 10 0 24 -3 25 -60 25
-43 0 -68 -6 -84 -18z"/>
<path d="M1047 562 c-10 -2 -15 -8 -12 -13 9 -13 645 -12 645 1 0 6 -3 10 -7
11 -25 3 -612 3 -626 1z"/>
<path d="M915 514 c-16 -7 -6 -154 10 -154 10 0 15 18 17 63 3 56 5 62 26 65
12 2 22 10 22 18 0 17 -22 18 -38 2 -9 -9 -12 -9 -12 0 0 12 -7 14 -25 6z"/>
<path d="M1013 505 c-48 -34 -36 -125 19 -144 80 -28 137 78 72 137 -29 26
-61 28 -91 7z m69 -22 c18 -16 24 -68 10 -90 -7 -11 -26 -17 -48 -14 -6 0 -17
15 -24 31 -10 24 -10 36 0 60 14 34 34 38 62 13z"/>
<path d="M1147 512 c-7 -11 0 -128 7 -141 4 -6 30 -10 62 -8 l55 2 -3 75 c-2
57 -6 75 -17 75 -12 0 -14 -13 -12 -56 2 -42 -2 -59 -14 -69 -31 -25 -50 0
-50 63 1 37 -4 58 -12 61 -7 3 -14 2 -16 -2z"/>
<path d="M1298 518 c0 -2 -2 -51 -3 -110 -2 -85 1 -108 12 -108 8 0 13 12 13
33 0 32 1 33 34 29 27 -3 37 1 55 23 49 64 2 157 -64 127 -15 -7 -25 -8 -25
-2 0 9 -17 14 -22 8z m92 -49 c32 -58 -26 -127 -62 -75 -13 19 -9 69 8 87 18
20 40 15 54 -12z"/>
<path d="M1358 329 c-25 -16 25 -22 165 -20 145 1 168 4 154 17 -8 9 -306 11
-319 3z"/>
<path d="M630 164 c0 -8 11 -14 28 -15 25 -1 258 0 275 1 4 0 7 6 7 14 0 11
-31 13 -155 13 -125 0 -155 -2 -155 -13z"/>
</g>
</svg>
